<?xml version="1.0" encoding="UTF-8" standalone="no"?>
<svg viewBox="0 0 900 40" xmlns="http://www.w3.org/2000/svg">
  <g>
    <!-- Primera fila de puntos (superior) -->
    <circle cx="10" cy="8" r="1.5" fill="#515b92" />
    <circle cx="40" cy="8" r="1.5" fill="#515b92" />
    <circle cx="70" cy="8" r="1.5" fill="#515b92" />
    <circle cx="100" cy="8" r="1.5" fill="#515b92" />
    <circle cx="130" cy="8" r="1.5" fill="#515b92" />
    <circle cx="160" cy="8" r="1.5" fill="#515b92" />
    <circle cx="190" cy="8" r="1.5" fill="#515b92" />
    <circle cx="220" cy="8" r="1.5" fill="#515b92" />
    <circle cx="250" cy="8" r="1.5" fill="#515b92" />
    <circle cx="280" cy="8" r="1.5" fill="#515b92" />
    <circle cx="310" cy="8" r="1.5" fill="#515b92" />
    <circle cx="340" cy="8" r="1.5" fill="#515b92" />
    <circle cx="370" cy="8" r="1.5" fill="#515b92" />
    <circle cx="400" cy="8" r="1.5" fill="#515b92" />
    <circle cx="430" cy="8" r="1.5" fill="#515b92" />
    <circle cx="460" cy="8" r="1.5" fill="#515b92" />
    <circle cx="490" cy="8" r="1.5" fill="#515b92" />
    <circle cx="520" cy="8" r="1.5" fill="#515b92" />
    <circle cx="550" cy="8" r="1.5" fill="#515b92" />
    <circle cx="580" cy="8" r="1.5" fill="#515b92" />
    <circle cx="610" cy="8" r="1.5" fill="#515b92" />
    <circle cx="640" cy="8" r="1.5" fill="#515b92" />
    <circle cx="670" cy="8" r="1.5" fill="#515b92" />
    <circle cx="700" cy="8" r="1.5" fill="#515b92" />
    <circle cx="730" cy="8" r="1.5" fill="#515b92" />
    <circle cx="760" cy="8" r="1.5" fill="#515b92" />
    <circle cx="790" cy="8" r="1.5" fill="#515b92" />
    <circle cx="820" cy="8" r="1.5" fill="#515b92" />
    <circle cx="850" cy="8" r="1.5" fill="#515b92" />
    <circle cx="880" cy="8" r="1.5" fill="#515b92" />
    
    <!-- Segunda fila de puntos (central) - intercalados -->
    <circle cx="25" cy="20" r="1.5" fill="#515b92" />
    <circle cx="55" cy="20" r="1.5" fill="#515b92" />
    <circle cx="85" cy="20" r="1.5" fill="#515b92" />
    <circle cx="115" cy="20" r="1.5" fill="#515b92" />
    <circle cx="145" cy="20" r="1.5" fill="#515b92" />
    <circle cx="175" cy="20" r="1.5" fill="#515b92" />
    <circle cx="205" cy="20" r="1.5" fill="#515b92" />
    <circle cx="235" cy="20" r="1.5" fill="#515b92" />
    <circle cx="265" cy="20" r="1.5" fill="#515b92" />
    <circle cx="295" cy="20" r="1.5" fill="#515b92" />
    <circle cx="325" cy="20" r="1.5" fill="#515b92" />
    <circle cx="355" cy="20" r="1.5" fill="#515b92" />
    <circle cx="385" cy="20" r="1.5" fill="#515b92" />
    <circle cx="415" cy="20" r="1.5" fill="#515b92" />
    <circle cx="445" cy="20" r="1.5" fill="#515b92" />
    <circle cx="475" cy="20" r="1.5" fill="#515b92" />
    <circle cx="505" cy="20" r="1.5" fill="#515b92" />
    <circle cx="535" cy="20" r="1.5" fill="#515b92" />
    <circle cx="565" cy="20" r="1.5" fill="#515b92" />
    <circle cx="595" cy="20" r="1.5" fill="#515b92" />
    <circle cx="625" cy="20" r="1.5" fill="#515b92" />
    <circle cx="655" cy="20" r="1.5" fill="#515b92" />
    <circle cx="685" cy="20" r="1.5" fill="#515b92" />
    <circle cx="715" cy="20" r="1.5" fill="#515b92" />
    <circle cx="745" cy="20" r="1.5" fill="#515b92" />
    <circle cx="775" cy="20" r="1.5" fill="#515b92" />
    <circle cx="805" cy="20" r="1.5" fill="#515b92" />
    <circle cx="835" cy="20" r="1.5" fill="#515b92" />
    <circle cx="865" cy="20" r="1.5" fill="#515b92" />
    
    <!-- Tercera fila de puntos (inferior) - igual que la primera -->
    <circle cx="10" cy="32" r="1.5" fill="#515b92" />
    <circle cx="40" cy="32" r="1.5" fill="#515b92" />
    <circle cx="70" cy="32" r="1.5" fill="#515b92" />
    <circle cx="100" cy="32" r="1.5" fill="#515b92" />
    <circle cx="130" cy="32" r="1.5" fill="#515b92" />
    <circle cx="160" cy="32" r="1.5" fill="#515b92" />
    <circle cx="190" cy="32" r="1.5" fill="#515b92" />
    <circle cx="220" cy="32" r="1.5" fill="#515b92" />
    <circle cx="250" cy="32" r="1.5" fill="#515b92" />
    <circle cx="280" cy="32" r="1.5" fill="#515b92" />
    <circle cx="310" cy="32" r="1.5" fill="#515b92" />
    <circle cx="340" cy="32" r="1.5" fill="#515b92" />
    <circle cx="370" cy="32" r="1.5" fill="#515b92" />
    <circle cx="400" cy="32" r="1.5" fill="#515b92" />
    <circle cx="430" cy="32" r="1.5" fill="#515b92" />
    <circle cx="460" cy="32" r="1.5" fill="#515b92" />
    <circle cx="490" cy="32" r="1.5" fill="#515b92" />
    <circle cx="520" cy="32" r="1.5" fill="#515b92" />
    <circle cx="550" cy="32" r="1.5" fill="#515b92" />
    <circle cx="580" cy="32" r="1.5" fill="#515b92" />
    <circle cx="610" cy="32" r="1.5" fill="#515b92" />
    <circle cx="640" cy="32" r="1.5" fill="#515b92" />
    <circle cx="670" cy="32" r="1.5" fill="#515b92" />
    <circle cx="700" cy="32" r="1.5" fill="#515b92" />
    <circle cx="730" cy="32" r="1.5" fill="#515b92" />
    <circle cx="760" cy="32" r="1.5" fill="#515b92" />
    <circle cx="790" cy="32" r="1.5" fill="#515b92" />
    <circle cx="820" cy="32" r="1.5" fill="#515b92" />
    <circle cx="850" cy="32" r="1.5" fill="#515b92" />
    <circle cx="880" cy="32" r="1.5" fill="#515b92" />
  </g>
</svg>